<svg width="1744" height="1719" viewBox="0 0 1744 1719" fill="none" xmlns="http://www.w3.org/2000/svg">
<path d="M1084.91 1072.72C985.843 1369.63 721.203 1461.32 581.27 1092.54C562.027 1041.83 612.342 1022.95 647.529 1000.63C671.631 985.348 684.292 972.093 682.823 958.426C675.896 893.951 645.902 714.572 645.902 714.572L642.852 708.793C642.852 708.793 643.583 707.173 640.712 710.038C637.719 713.025 630.818 744.214 603.621 744.214C579.237 744.214 554.482 733.314 542.636 657.886C538.348 630.589 540.781 559.025 570.989 546.102C583.471 540.763 594.987 538.854 606.221 545.263C617.456 551.671 593.26 523.357 718.208 419.232C799.426 351.549 927.717 341.629 979.483 353.057C1031.25 364.484 1083.02 389.824 1105.91 443.483C1133.69 508.593 1080.03 557.759 1091.82 706.042C1089.67 759.617 1092.74 877.198 945.313 916.607C917.313 924.093 926 965 968 975C1035 996 1084.96 1047.27 1084.96 1072.86" fill="white"/>
<path fill-rule="evenodd" clip-rule="evenodd" d="M1084.94 611.2L1085.1 609.806C1089.24 573.399 1093.26 538.118 1112.24 506.429C1118.7 510.85 1117.95 516.452 1115.93 521.643C1096.01 572.846 1097.84 626.04 1099.67 679.206C1099.83 683.863 1099.99 688.519 1100.14 693.174C1102.22 759.601 1085.65 819.988 1041.35 870.736C1025.98 888.348 1005.63 900.464 984.854 911.045C963.515 921.912 959.03 931.132 965.687 954.599C965.93 955.455 966.229 956.315 966.529 957.178C967.892 961.1 969.273 965.073 965.487 968.95C960.965 973.58 956.026 972.259 950.683 970.83C950.48 970.776 950.277 970.721 950.074 970.667C899.733 957.241 854.697 933.154 813.056 902.393C807.139 898.023 802.272 892.061 797.561 886.29L797.561 886.29L797.256 885.916C794.776 882.879 794.338 878.141 797.807 875.462C801.054 872.955 803.609 875.011 806.452 877.298C806.815 877.59 807.182 877.886 807.556 878.176C830.027 895.614 854.773 907.063 883.768 909.943C897.176 911.276 910.448 910.784 923.708 910.293H923.708H923.709C931.17 910.017 938.626 909.741 946.101 909.79C956.34 909.857 964.752 905.107 972.761 900.584C973.712 900.047 974.658 899.513 975.601 898.99C1003.45 883.545 1029.88 866.229 1047.84 838.331C1063.92 813.331 1073.67 786.1 1079.4 757.443C1086.65 721.27 1085.99 684.701 1085.32 647.621C1085.11 635.536 1084.89 623.397 1084.94 611.2ZM581.684 535.824C603.577 534.064 615.771 547.033 626.037 562.053C638.664 580.526 645.39 601.465 648.37 623.572C648.87 627.28 649.389 631.223 647.152 634.856C642.737 635.45 642.319 631.946 642.252 629.317C641.696 608.644 632.526 590.61 623.308 573.156C616.73 560.704 607.059 548.64 591.943 545.577C574.71 542.084 558.858 557.566 551.067 577.842C536.636 615.398 539.029 652.36 552.455 688.759C558.33 704.687 565.648 720.913 580.303 732.026C595.142 743.28 613.008 741.295 623.903 726.349C624.526 725.495 625.184 724.649 625.845 723.801L625.845 723.801L625.845 723.801C627.841 721.238 629.853 718.656 630.928 715.749C633.035 710.049 636.256 704.629 642.155 705.423C648.978 706.342 650.271 713.729 650.909 719.499C656.707 771.928 664.758 824.024 672.81 876.126L672.81 876.126C674.808 889.053 676.806 901.981 678.769 914.913C681.369 932.023 684.381 956.598 682.361 967.05C682.219 967.792 682.136 968.523 682.058 969.222C681.749 971.958 681.496 974.21 677.906 974.75C673.034 975.484 670.831 972.66 670.233 968.28C667.913 951.274 667.273 944.747 666.275 918.735C665.308 893.519 660.569 868.665 655.83 843.816L655.83 843.815C654.111 834.8 652.392 825.785 650.853 816.753C645.613 785.996 640.483 754.802 640.022 719.777C639.326 720.808 638.644 721.825 637.974 722.826C630.426 734.096 624.264 743.295 613.48 746.877C595.58 752.827 579.917 748.422 567.371 734.277C553.071 718.155 543.783 699.808 538.558 678.498C530.244 644.587 528.704 611.368 539.487 577.853C544.655 561.774 563.189 533.208 581.684 535.824ZM616.346 663.326C620.717 666.467 624.679 669.316 628.334 657.948C627.158 615.652 613.6 588.654 592.472 587.632C603.747 602.197 614.559 616.413 615.472 636.132C610.742 633.978 607.7 630.59 604.784 627.342C602.753 625.08 600.784 622.886 598.348 621.226C597.31 620.519 596.295 619.736 595.271 618.946C590.544 615.301 585.636 611.516 577.471 614.357C581.301 620.187 586.575 624.302 591.799 628.377C597.832 633.084 603.798 637.738 607.392 644.919C596.777 652.561 592.209 662.62 597.718 674.761C602.497 685.296 609.565 694 623.565 694.635C623.043 688.311 618.868 683.708 614.812 679.235C609.879 673.796 605.121 668.55 607.316 660.635C610.515 659.134 613.516 661.291 616.346 663.326Z" fill="black"/>
<path d="M1479.34 1609.34H360.011L184.067 1606.95C184.067 1606.95 209.832 1370.2 220.741 1338.62C246.882 1262.96 273.289 1171.15 341.162 1126.25C370.762 1106.67 394.457 1089.31 396.38 1078.73C397.353 1073.39 494.201 979.026 511.723 969.463C595.242 923.882 676.472 951.091 676.472 951.091L677.372 969.858C677.372 969.858 679.293 992.558 684.26 999.315C707.002 1030.27 785.627 1049.72 838.445 1053.97C904.662 1059.29 976.945 1029.31 979.106 1007.29C980.797 990.049 957.724 958.766 990.927 945.67C1016.48 935.593 1092.45 941.996 1119 952.291C1153.15 965.535 1218.06 1005.78 1249.28 1045.69C1261.5 1061.31 1263.99 1105.22 1305.6 1118.06C1367.6 1137.21 1415.19 1226.76 1440.9 1338.62C1454.04 1395.77 1479.34 1609.34 1479.34 1609.34Z" fill="white"/>
<path d="M1138.96 1609H1023.87L1028.74 1420.31C1028.74 1420.31 1031.18 1155.02 1023.87 1064.46C1021.54 1035.53 1003.64 994.986 991.964 1006.66C923.608 1075.02 828.314 1060.51 819.67 1061.32C796.37 1063.51 758.02 1053.68 713.798 1033.21C701.385 1027.46 673.038 993.436 673.038 993.436C673.038 993.436 631.314 1054.14 628.738 1115.31C624.505 1215.83 633.559 1383.7 636.687 1453.43C639.593 1518.24 641.221 1609 641.221 1609H526.156C526.156 1609 544.619 1289.4 526.156 1109.41C518.282 1032.66 403.534 1100.3 407.324 1074.01C414.339 1025.36 513.691 955.566 564.766 941.811C584.937 936.378 674.476 947.699 674.476 947.699C674.476 947.699 679.676 998.938 702.939 1018.49C712.966 1026.92 760.128 1049.06 807.806 1054.36C863.193 1060.52 921.312 1048.18 954.639 1031.58C998.862 1009.55 937.381 983.566 977.178 956.449C1016.76 929.476 1039.26 939.749 1070.02 940.723C1165.39 943.742 1279.26 1072.15 1261.87 1078.05C1236.72 1086.58 1141.6 1045.17 1131.43 1117.51C1116.99 1220.23 1138.96 1609 1138.96 1609Z" fill="black"/>
<path d="M1473.02 1609C1466.78 1587.73 1461.53 1535.69 1458.12 1507.01C1455.67 1486.35 1438.47 1340.53 1419.56 1289.62C1407.99 1258.46 1397.23 1226.56 1380.13 1197.46C1368.43 1177.53 1350.81 1163.19 1334.07 1148.6C1313.4 1130.6 1290.59 1114.94 1267.13 1100.39C1236.21 1081.22 1203.66 1077.31 1169.49 1088.67C1158.34 1092.39 1150.85 1100.22 1147.62 1113.02C1134.18 1166.34 1138.46 1220.59 1137.81 1274.57C1136.98 1344.37 1140.91 1414.06 1143.04 1483.8C1144.78 1541.04 1142.9 1550.54 1142.4 1609C1137.4 1609 1133.39 1609 1127.91 1609C1127 1576.83 1127.51 1593.66 1127.33 1561.49C1127.05 1513.93 1126.51 1466.37 1125.69 1418.81C1125.1 1380.98 1125.39 1343.06 1122.92 1305.33C1120.32 1265.69 1120.19 1226.18 1123.62 1186.73C1126.07 1158.52 1123.73 1129.73 1134.93 1102.41C1144.33 1079.46 1163.21 1070.59 1184.8 1068.95C1207.18 1067.25 1230.48 1064.07 1254.58 1078.2C1249.8 1061.58 1239.61 1053.48 1231.95 1044.13C1203.93 1009.99 1166.51 988.684 1128.45 967.449C1089.08 945.485 1047.67 948.408 1005.78 950.031C999.278 950.283 993.702 953.755 988.001 956.731C980.485 960.65 972.666 963.961 961.353 961.531C970.878 948.562 983.538 944.175 996.538 940.391C1033.61 929.601 1069.52 935.246 1092.19 938.61C1121.05 942.894 1220.66 990.92 1267.68 1066.5C1290.02 1102.4 1353.48 1102.9 1411.34 1224.05C1426.69 1256.2 1437.46 1290.42 1445.99 1324.83C1456.9 1368.83 1485.5 1577.39 1485.5 1609C1481.18 1609 1477.64 1609 1473.02 1609Z" fill="black"/>
<path d="M193.261 1609C195.284 1602.11 195.953 1599.1 196.902 1593.29C201.546 1564.86 202.368 1535.69 205.777 1507.01C208.231 1486.35 209.091 1465.59 211.884 1444.92C218.992 1392.32 227.393 1340.04 244.334 1289.62C254.986 1257.92 266.67 1226.56 283.765 1197.46C295.471 1177.53 313.09 1163.19 329.831 1148.6C350.493 1130.6 373.309 1114.94 396.771 1100.39C427.688 1081.22 460.234 1077.31 494.409 1088.67C505.56 1092.39 513.047 1100.22 516.275 1113.02C529.72 1166.34 525.438 1220.59 526.084 1274.57C526.919 1344.37 522.984 1414.06 520.858 1483.8C519.114 1541.04 521.428 1608.83 521.428 1608.83C521.428 1608.83 530.483 1608.99 535.969 1608.99C536.877 1576.83 536.385 1593.66 536.569 1561.49C536.845 1513.93 537.389 1466.37 538.202 1418.81C538.794 1380.98 538.502 1343.06 540.976 1305.33C543.576 1265.69 543.706 1226.18 540.276 1186.73C537.821 1158.52 540.161 1129.73 528.965 1102.41C519.565 1079.46 500.683 1070.59 479.095 1068.95C456.714 1067.25 433.413 1064.07 409.32 1078.2C414.096 1061.58 424.284 1053.48 431.948 1044.13C459.963 1009.99 497.389 988.683 535.448 967.448C574.817 945.484 616.223 948.407 658.112 950.03C664.617 950.282 670.193 953.754 675.893 956.73C683.41 960.649 678.236 968.171 682.345 957.355C688.058 942.313 680.357 944.178 667.357 940.394C630.289 929.604 593.215 936.425 556.246 940.947C548.877 941.847 541.498 945.318 534.834 948.918C483.408 976.7 418.729 1026.13 396.212 1066.5C384.191 1088.05 365.46 1099.27 348.712 1114.16C288.953 1167.3 273.27 1178.82 252.555 1224.06C237.725 1256.44 226.436 1290.42 217.902 1324.84C206.993 1368.83 198.761 1413.42 195.067 1458.96C192.433 1491.43 187.742 1523.84 184.784 1556.4C182.712 1579.2 181.258 1596.15 181.258 1609C185.014 1609 188.639 1609 193.261 1609Z" fill="black"/>
<path d="M1309.79 1609C1311.79 1585.29 1301.86 1524.28 1297.33 1493.27C1294.03 1470.69 1294.3 1447.39 1285.87 1425.59C1283.78 1420.19 1284.44 1413.21 1291.19 1412.09C1297.64 1411.02 1300.45 1415.57 1301.93 1422.88C1309.7 1461.22 1313.2 1500.11 1317.85 1538.83C1321.45 1568.8 1325.74 1598.94 1326.38 1608.92C1320.54 1609 1316.14 1609 1309.79 1609Z" fill="black"/>
<path d="M371.285 1609C372.728 1585.44 379.338 1524.28 383.87 1493.27C387.17 1470.69 386.895 1447.39 395.33 1425.59C397.421 1420.19 396.76 1413.21 390.009 1412.09C383.553 1411.02 380.747 1415.57 379.265 1422.88C371.495 1461.22 367.997 1500.11 363.345 1538.83C359.745 1568.8 357.557 1609 357.557 1609C357.557 1609 364.938 1609 371.285 1609Z" fill="black"/>
<path d="M1021.73 1609.34L644.248 1609C644.248 1609 630.734 1174.7 630.734 1085.36C630.734 1011.42 667.272 930.605 682.701 954.709C711.167 999.184 759.212 1009.77 831.706 1013C946.729 1018.11 953.283 975.059 968.958 966.166C1000.44 948.303 1021.73 1022.6 1021.73 1099.27C1021.73 1204.5 1021.73 1609.34 1021.73 1609.34Z" fill="white"/>
<path d="M645.36 1609.34C645.36 1609.34 630.734 1181.76 630.734 1093.86C630.734 1021.11 667.272 930.993 682.701 954.708C711.167 998.465 759.901 1013.06 832.395 1016.24C947.418 1021.27 953.283 974.915 968.958 966.165C1000.44 948.591 1021.73 1032.12 1021.73 1107.55C1021.73 1175.46 1021.73 1609 1021.73 1609" stroke="black" stroke-width="15"/>
<path d="M777.87 1376.69C777.87 1376.69 928.023 1420.37 949.839 1418.84C959.381 1418.17 963.513 1411.89 961.699 1402.61C961.12 1398.14 958.653 1394.33 956.153 1390.69C953.303 1386.54 770.13 1165.03 752.678 1206.07C750.978 1210.06 751.49 1214.74 753.24 1218.63C757.463 1226.53 763.954 1232.96 769.519 1239.9C790.926 1264.69 811.141 1290.47 832.609 1315.2C845.257 1330.09 863.101 1349.36 870.474 1362.9C865.119 1362.4 855.391 1359.4 849.358 1358.03C835.873 1354.56 822.41 1351 808.885 1347.69C789.147 1342.82 769.025 1338.97 748.685 1338.02C739.45 1337.86 728.275 1337.58 721.669 1345.11C716.548 1351.58 715.686 1360.86 718.855 1368.39C722.94 1376.65 729.6 1383.34 735.505 1390.32C745.045 1400.95 755.057 1411.15 765.115 1421.29C783.856 1439.79 802.361 1458.52 821.315 1476.81C843.305 1497.71 864.815 1519.1 886.358 1540.46C902.166 1556 918.307 1571.19 934.166 1586.66C939.012 1591.36 943.835 1596.09 949.027 1600.41C950.754 1601.84 952.477 1603.29 954.313 1604.59C955.507 1605.39 956.685 1606.35 958.178 1606.42C960.663 1605.97 961.52 1602.86 961.752 1600.68C962.666 1594.89 959.044 1590.05 956.212 1585.37C931.577 1546.7 777.87 1376.69 777.87 1376.69Z" fill="black"/>
<path d="M578.773 385.193C600.35 337.713 634.899 304.131 679.795 280.431C704.606 267.337 729.589 254.023 757.109 248.376C796.709 240.251 836.015 240.646 874.799 255.952C913.05 271.047 952.099 266.081 991.448 257.428C1041.67 246.384 1086.75 256.054 1125.44 293.239C1159.41 325.897 1176.55 364.029 1175.2 411.015C1174.49 435.784 1166.84 441.492 1142.97 432.147C1140.9 446.829 1141.36 461.7 1135.6 475.565C1129.26 490.84 1122.78 505.94 1113.21 519.54C1107.05 528.305 1107.96 539.703 1103.31 549.023C1095.35 548.186 1096.59 542.569 1096.67 538.323C1097.22 511.471 1097.1 484.595 1091.2 458.295C1085.4 432.458 1074.87 408.745 1050.25 395.372C1038.23 388.846 1023.11 389.372 1011.7 394.431C991.607 403.337 974.81 398.894 956.881 390.087C927.34 375.577 897.109 376.631 867.02 388.672C834.949 401.507 816.509 427.904 801.692 457.036C797.44 465.397 797.582 475.959 795.475 485.46C794.375 490.439 793.319 496.234 786.987 496.819C781.268 497.347 776.627 494.529 772.587 490.077C761.687 478.071 760.587 462.418 756.378 446.785C749.31 461.761 749.596 476.558 749.769 491.342C749.839 497.312 750.152 503.301 749.798 509.249C749.247 518.513 747.698 528.264 736.221 529.211C725.881 530.065 719.078 523.149 715.021 514.151C712.264 508.032 710.412 501.504 707.606 493.615C700.941 501.194 701.07 509.437 699.16 516.754C694.78 533.535 691.37 550.569 683.292 566.186C680.565 571.456 679.292 576.931 671.277 577.228C662.877 577.539 661.74 571.928 659.442 566.492C658.649 564.617 657.196 563.021 654.613 559.157C649.835 583.163 656.847 606.245 649.238 627.966C643.412 625.997 643.856 622.139 643.738 618.932C643.016 599.21 635.312 581.4 625.343 565.381C615.406 549.413 602.806 534.919 579.723 537.794C572.506 538.694 568.047 544.587 560.409 544.867C546.526 489.461 554.35 436.885 578.773 385.193Z" fill="black"/>
<path d="M932.737 807.906C929.492 814.911 926.964 822.217 926.594 829.913C926.37 834.558 927.442 839.813 932.58 841.586C938.029 843.463 941.739 840.566 945.364 836.032C951.407 828.472 952.78 819.754 952.906 810.891C952.976 805.972 954.186 799.108 946.775 797.191C939.184 795.226 936.079 800.322 932.737 807.906Z" fill="white"/>
<path fill-rule="evenodd" clip-rule="evenodd" d="M931.442 788.525C916.508 803.497 914.18 821.929 917.26 842.753C922.749 853.587 931.212 853.977 940.734 852.693C962.018 849.825 980.271 817.986 966.686 794.225C957.328 777.856 944.781 775.151 931.442 788.525ZM926.595 829.909C926.965 822.213 929.493 814.907 932.738 807.902L932.737 807.906C936.079 800.322 939.184 795.226 946.776 797.187C953.356 798.889 953.14 804.491 952.96 809.169C952.937 809.759 952.915 810.336 952.907 810.887C952.781 819.75 951.408 828.468 945.365 836.028C941.74 840.562 938.03 843.459 932.581 841.582C927.443 839.809 926.371 834.554 926.595 829.909Z" fill="black"/>
<path d="M942.154 723.633C936.811 718.816 931.954 714.216 936.726 707.804C941.737 701.067 946.52 707.915 951.352 709.204C954.578 710.065 957.015 713.589 960.737 712.545C967.183 710.738 974.721 709.972 975.643 701.07C976.516 692.643 969.607 690.576 963.989 687.975C959.605 685.946 951.016 689.075 952.689 680.04C954.236 671.714 961.823 672.305 968.255 672.871C982.414 674.119 991.73 684.013 992.247 697.927C992.847 714.117 983.914 726.38 969.007 727.914C960.304 728.811 951.032 729.841 942.154 723.633Z" fill="black"/>
<path d="M1017.42 660.506C1030.47 660.835 1042.79 661.627 1055.03 663.023C1057.98 663.359 1059.95 666.345 1060.02 669.673C1060.08 673.001 1058.26 675.314 1055.29 676.614C1044.12 681.505 1033.27 684.914 1021.58 676.875C1015.1 672.42 1012.67 668.208 1017.42 660.506Z" fill="black"/>
<path d="M857.553 655.018C864.548 655.018 865.431 658.775 864.553 663.536C862.692 673.673 844.629 685.9 834.226 684.048C828.31 682.995 823.714 679.982 823.506 673.498C823.292 666.798 828.349 665.259 833.806 665.068C842.732 664.756 849.605 659.948 857.553 655.018Z" fill="black"/>
<path d="M825.129 614.635C830.116 602.597 834.019 585.235 849.214 592.12C869.893 601.493 863.072 622.846 858.89 639.481C857.312 645.758 844.37 655.393 840.636 653.837C824.348 647.046 821.371 632.095 825.129 614.635Z" fill="black"/>
<path d="M1051.96 651.426C1043.38 658.882 1034.99 659.026 1029.82 649.926C1020.7 633.887 1021.2 617.101 1033.14 602.686C1035.63 599.675 1046.89 599.056 1049.42 601.744C1063.36 616.605 1063.96 633.46 1051.96 651.426Z" fill="black"/>
<path fill-rule="evenodd" clip-rule="evenodd" d="M936.086 552.28L936.091 552.28C988.115 552.625 1039.33 552.965 1090.54 553.379C1095.22 553.534 1099.88 553.946 1104.51 554.613C1111.63 555.461 1114.91 558.8 1116.49 566.645C1122.72 597.494 1119.29 627.659 1110.22 657.034C1104.76 674.708 1090.23 685.104 1072.67 690.575C1049.74 697.719 1026.22 702.951 1002.87 694.475C982.13 686.945 965.693 674.48 960.014 650.539C959.303 647.544 958.415 644.607 957.53 641.683L957.53 641.683C955.016 633.371 952.533 625.162 954.257 616.009C954.996 612.084 951.195 610.147 948.208 608.625L948.178 608.609C933.188 600.963 918.478 608.418 915.77 625.087C912.8 643.375 906.77 660.896 896.409 675.877C879.865 699.791 854.759 705.261 827.4 702.024C805.853 699.474 787.236 690.436 771.2 675.436C756.85 662.014 749.583 645.894 751.124 626.641C752.024 615.435 745.703 610.341 737.424 608.931C723.108 606.49 709.839 601.084 696.64 595.707L696.64 595.707C691.89 593.772 687.15 591.84 682.373 590.052C675.182 587.361 667.875 585.068 660.573 582.776L660.573 582.776C652.535 580.253 644.505 577.733 636.643 574.686C636.288 574.548 635.935 574.416 635.588 574.286L635.587 574.286C631.77 572.856 628.566 571.655 629.191 565.821C634.893 563.16 640.131 564.868 645.555 566.636C649.145 567.806 652.817 569.003 656.759 568.979C654.074 559.998 648.481 556.606 639.498 556.208C628.724 555.73 619.098 552.031 611.968 543.033C616.742 538.381 620.995 538.713 625.149 539.84C646.516 545.638 668.347 548.926 690.183 552.215C708.177 554.925 726.175 557.636 743.922 561.752C754.208 564.137 765.261 564.18 774.962 555.33C781.178 549.658 790.446 549.846 798.931 550.018C799.981 550.039 801.018 550.06 802.037 550.07C827.29 550.306 852.539 550.861 878.239 551.425L878.239 551.425C888.89 551.659 899.618 551.895 910.456 552.11C919.023 552.167 927.565 552.224 936.086 552.28ZM760.356 617.971C763.719 659.682 787.103 680.956 823.136 688.965C846.709 694.205 875.409 689.103 889.946 662.185C898.129 647.032 902.768 631.045 906.959 614.601C910.83 599.408 921.194 594.555 942.6 596.34C956.894 597.532 963.476 604.184 965.4 618.805C966.843 629.764 968.476 640.705 970.421 651.589C972.877 665.337 989.854 681.913 1003.73 684.698C1025.07 689.112 1047.22 687.481 1067.68 679.99C1079.66 675.651 1090.59 669.619 1096.36 656.996C1106.44 634.947 1109.45 611.71 1109.14 587.78C1108.85 565.859 1107.52 564.38 1084.84 564.29C1070.75 564.234 1056.66 564.251 1042.56 564.267C1023.03 564.29 1003.49 564.313 983.955 564.142C958.981 563.924 934.008 563.604 909.035 563.283L909.035 563.283C879.978 562.909 850.922 562.536 821.864 562.325C818.382 562.3 814.788 561.962 811.177 561.623C800.435 560.615 789.534 559.591 780.937 566.725C771.995 574.143 763.102 574.12 753.534 574.095H753.533C752.385 574.092 751.227 574.089 750.058 574.099C747.558 574.12 745.094 573.606 742.603 573.086C738.399 572.209 734.118 571.316 729.458 572.953C730.779 587.769 734.15 600.719 751.399 604.178C757.747 605.448 761.123 609.009 760.352 617.971H760.356ZM684.546 564.56C693.391 563.411 701.56 562.35 704.44 575.114H704.436C705.954 579.856 707.095 582.843 708.497 586.514L708.515 586.562C695.509 583.793 685.342 578.841 680.387 565.051C681.778 564.92 683.17 564.739 684.546 564.56Z" fill="black"/>
<path d="M896.905 582.754C896.231 576.754 900.033 575.42 903.921 575.408C922.994 575.35 942.074 575.424 961.138 575.922C965.487 575.942 969.579 577.982 972.214 581.442C965.312 589.5 918.64 590.826 896.905 582.754Z" fill="black"/>
<path d="M872.866 556.818C879.466 556.018 884.894 555.044 890.366 554.489C895.097 554.009 898.623 556.283 900.656 560.52C902.556 564.476 899.246 566.487 897.345 569.262C882.426 591.038 860.364 585.884 840.545 582.262C826.487 579.691 810.124 577.156 803.369 559.584C799.915 550.599 800.584 547.526 810.516 546.639C816.232 546.128 821.446 547.863 826.69 549.623C841.542 554.705 857.171 557.141 872.866 556.818Z" fill="black"/>
<path d="M1003.38 557.23C1008.99 553.109 1014.19 554.259 1019.78 555.392C1036.9 558.87 1054.06 561.161 1069.98 550.683C1074.29 547.839 1079.23 547.173 1082.7 551.383C1085.9 555.283 1083 559.15 1080.83 563.013C1073.88 575.367 1061.94 579.387 1049.43 582.603C1039.36 585.193 1029.03 584.653 1018.88 584.035C1003.02 583.071 997.146 573.032 1003.38 557.23Z" fill="black"/>
</svg>
